<svg width="1129" height="328" viewBox="0 0 1129 328" fill="none" xmlns="http://www.w3.org/2000/svg">
<g clip-path="url(#clip0_31_992)">
<path d="M52.9166 22.1177V30.1177H51.9479V23.1333H51.901L49.9479 24.4302V23.4458L51.9479 22.1177H52.9166ZM55.2174 30.1177V29.4146L57.8581 26.524C58.168 26.1854 58.4232 25.8911 58.6237 25.6411C58.8242 25.3885 58.9726 25.1516 59.069 24.9302C59.168 24.7062 59.2174 24.4719 59.2174 24.2271C59.2174 23.9458 59.1497 23.7023 59.0143 23.4966C58.8815 23.2909 58.6992 23.132 58.4674 23.02C58.2357 22.9081 57.9752 22.8521 57.6862 22.8521C57.3789 22.8521 57.1107 22.9159 56.8815 23.0435C56.6549 23.1685 56.4791 23.3443 56.3541 23.5708C56.2318 23.7974 56.1706 24.063 56.1706 24.3677H55.2487C55.2487 23.899 55.3568 23.4875 55.5729 23.1333C55.789 22.7792 56.0833 22.5031 56.4557 22.3052C56.8307 22.1073 57.2513 22.0083 57.7174 22.0083C58.1862 22.0083 58.6015 22.1073 58.9635 22.3052C59.3255 22.5031 59.6094 22.77 59.8151 23.106C60.0208 23.4419 60.1237 23.8156 60.1237 24.2271C60.1237 24.5214 60.0703 24.8091 59.9635 25.0904C59.8594 25.369 59.6771 25.6802 59.4166 26.024C59.1588 26.3651 58.8008 26.7818 58.3424 27.274L56.5456 29.1958V29.2583H60.2643V30.1177H55.2174ZM64.487 30.2271C63.8984 30.2271 63.3971 30.0669 62.9831 29.7466C62.569 29.4237 62.2526 28.9562 62.0338 28.3443C61.8151 27.7297 61.7057 26.9875 61.7057 26.1177C61.7057 25.2531 61.8151 24.5148 62.0338 23.9029C62.2552 23.2883 62.5729 22.8195 62.987 22.4966C63.4036 22.1711 63.9036 22.0083 64.487 22.0083C65.0703 22.0083 65.569 22.1711 65.9831 22.4966C66.3997 22.8195 66.7174 23.2883 66.9362 23.9029C67.1575 24.5148 67.2682 25.2531 67.2682 26.1177C67.2682 26.9875 67.1588 27.7297 66.9401 28.3443C66.7213 28.9562 66.4049 29.4237 65.9909 29.7466C65.5768 30.0669 65.0755 30.2271 64.487 30.2271ZM64.487 29.3677C65.0703 29.3677 65.5234 29.0865 65.8463 28.524C66.1693 27.9615 66.3307 27.1594 66.3307 26.1177C66.3307 25.425 66.2565 24.8352 66.1081 24.3482C65.9622 23.8612 65.7513 23.4901 65.4752 23.2349C65.2018 22.9797 64.8724 22.8521 64.487 22.8521C63.9088 22.8521 63.457 23.1372 63.1315 23.7075C62.806 24.2753 62.6432 25.0786 62.6432 26.1177C62.6432 26.8104 62.7161 27.399 62.862 27.8833C63.0078 28.3677 63.2174 28.7362 63.4909 28.9888C63.7669 29.2414 64.0989 29.3677 64.487 29.3677Z" fill="#373D3F"/>
<path d="M56.6453 85.4998C56.9734 85.5024 57.3016 85.5649 57.6297 85.6873C57.9578 85.8097 58.2573 86.0128 58.5281 86.2966C58.799 86.5779 59.0164 86.962 59.1805 87.449C59.3445 87.936 59.4266 88.5466 59.4266 89.281C59.4266 89.9919 59.3589 90.6235 59.2234 91.1755C59.0906 91.725 58.8979 92.1886 58.6453 92.5662C58.3953 92.9438 58.0906 93.2302 57.7313 93.4255C57.3745 93.6208 56.9708 93.7185 56.5203 93.7185C56.0724 93.7185 55.6727 93.63 55.3211 93.4529C54.9721 93.2732 54.6857 93.0245 54.4617 92.7068C54.2404 92.3865 54.0984 92.0154 54.0359 91.5935H54.9891C55.075 91.9607 55.2456 92.2641 55.5008 92.5037C55.7586 92.7406 56.0984 92.8591 56.5203 92.8591C57.1375 92.8591 57.6245 92.5896 57.9813 92.0505C58.3406 91.5115 58.5203 90.7498 58.5203 89.7654H58.4578C58.312 89.9841 58.1388 90.1729 57.9383 90.3318C57.7378 90.4906 57.5151 90.613 57.2703 90.699C57.0255 90.7849 56.7651 90.8279 56.4891 90.8279C56.0307 90.8279 55.6102 90.7146 55.2274 90.488C54.8471 90.2589 54.5425 89.9451 54.3133 89.5466C54.0867 89.1456 53.9734 88.6873 53.9734 88.1716C53.9734 87.682 54.0828 87.2341 54.3016 86.8279C54.5229 86.419 54.8328 86.0935 55.2313 85.8513C55.6323 85.6091 56.1037 85.4919 56.6453 85.4998ZM56.6453 86.3591C56.3172 86.3591 56.0216 86.4412 55.7586 86.6052C55.4982 86.7667 55.2912 86.9854 55.1375 87.2615C54.9865 87.5349 54.9109 87.8383 54.9109 88.1716C54.9109 88.505 54.9839 88.8083 55.1297 89.0818C55.2781 89.3526 55.48 89.5688 55.7352 89.7302C55.993 89.8891 56.2859 89.9685 56.6141 89.9685C56.8615 89.9685 57.0919 89.9203 57.3055 89.824C57.519 89.725 57.7052 89.5909 57.8641 89.4216C58.0255 89.2498 58.1518 89.0557 58.243 88.8396C58.3341 88.6208 58.3797 88.393 58.3797 88.156C58.3797 87.8435 58.3042 87.5505 58.1531 87.2771C58.0047 87.0037 57.799 86.7823 57.5359 86.613C57.2755 86.4438 56.9787 86.3591 56.6453 86.3591ZM63.5721 93.7185C62.9835 93.7185 62.4822 93.5583 62.0682 93.238C61.6541 92.9151 61.3377 92.4477 61.119 91.8357C60.9002 91.2211 60.7908 90.4789 60.7908 89.6091C60.7908 88.7445 60.9002 88.0063 61.119 87.3943C61.3403 86.7797 61.658 86.311 62.0721 85.988C62.4887 85.6625 62.9887 85.4998 63.5721 85.4998C64.1554 85.4998 64.6541 85.6625 65.0682 85.988C65.4848 86.311 65.8026 86.7797 66.0213 87.3943C66.2427 88.0063 66.3533 88.7445 66.3533 89.6091C66.3533 90.4789 66.244 91.2211 66.0252 91.8357C65.8065 92.4477 65.4901 92.9151 65.076 93.238C64.6619 93.5583 64.1606 93.7185 63.5721 93.7185ZM63.5721 92.8591C64.1554 92.8591 64.6085 92.5779 64.9315 92.0154C65.2544 91.4529 65.4158 90.6508 65.4158 89.6091C65.4158 88.9164 65.3416 88.3266 65.1932 87.8396C65.0473 87.3526 64.8364 86.9815 64.5604 86.7263C64.2869 86.4711 63.9575 86.3435 63.5721 86.3435C62.994 86.3435 62.5421 86.6287 62.2166 87.199C61.8911 87.7667 61.7283 88.5701 61.7283 89.6091C61.7283 90.3018 61.8012 90.8904 61.9471 91.3748C62.0929 91.8591 62.3026 92.2276 62.576 92.4802C62.852 92.7328 63.1841 92.8591 63.5721 92.8591Z" fill="#373D3F"/>
<path d="M56.7547 157.21C56.4266 157.205 56.0984 157.142 55.7703 157.022C55.4422 156.903 55.1427 156.701 54.8719 156.417C54.6011 156.131 54.3836 155.744 54.2195 155.257C54.0555 154.767 53.9734 154.153 53.9734 153.413C53.9734 152.705 54.0399 152.077 54.1727 151.53C54.3055 150.981 54.4982 150.519 54.7508 150.144C55.0034 149.766 55.3081 149.479 55.6649 149.284C56.0242 149.089 56.4292 148.991 56.8797 148.991C57.3276 148.991 57.7261 149.081 58.075 149.261C58.4266 149.438 58.713 149.685 58.9344 150.003C59.1557 150.321 59.299 150.687 59.3641 151.101H58.4109C58.3224 150.741 58.1505 150.443 57.8953 150.206C57.6401 149.969 57.3016 149.851 56.8797 149.851C56.2599 149.851 55.7716 150.12 55.4149 150.659C55.0607 151.198 54.8823 151.955 54.8797 152.929H54.9422C55.088 152.707 55.2612 152.519 55.4617 152.362C55.6649 152.203 55.8888 152.081 56.1336 151.995C56.3784 151.909 56.6375 151.866 56.9109 151.866C57.3693 151.866 57.7886 151.981 58.1688 152.21C58.549 152.437 58.8537 152.75 59.0828 153.151C59.312 153.55 59.4266 154.007 59.4266 154.522C59.4266 155.017 59.3159 155.47 59.0945 155.882C58.8732 156.291 58.562 156.616 58.1609 156.858C57.7625 157.098 57.2938 157.215 56.7547 157.21ZM56.7547 156.351C57.0828 156.351 57.3771 156.269 57.6375 156.104C57.9005 155.94 58.1076 155.72 58.2586 155.444C58.4123 155.168 58.4891 154.861 58.4891 154.522C58.4891 154.192 58.4149 153.891 58.2664 153.62C58.1206 153.347 57.9188 153.129 57.6609 152.968C57.4057 152.806 57.1141 152.726 56.7859 152.726C56.5386 152.726 56.3081 152.775 56.0945 152.874C55.881 152.97 55.6935 153.103 55.532 153.272C55.3732 153.442 55.2482 153.636 55.157 153.854C55.0659 154.071 55.0203 154.298 55.0203 154.538C55.0203 154.856 55.0945 155.153 55.243 155.429C55.394 155.705 55.5998 155.927 55.8602 156.097C56.1232 156.266 56.4214 156.351 56.7547 156.351ZM63.5721 157.21C62.9835 157.21 62.4822 157.05 62.0682 156.729C61.6541 156.407 61.3377 155.939 61.119 155.327C60.9002 154.713 60.7908 153.97 60.7908 153.101C60.7908 152.236 60.9002 151.498 61.119 150.886C61.3403 150.271 61.658 149.802 62.0721 149.479C62.4887 149.154 62.9887 148.991 63.5721 148.991C64.1554 148.991 64.6541 149.154 65.0682 149.479C65.4848 149.802 65.8026 150.271 66.0213 150.886C66.2427 151.498 66.3533 152.236 66.3533 153.101C66.3533 153.97 66.244 154.713 66.0252 155.327C65.8065 155.939 65.4901 156.407 65.076 156.729C64.6619 157.05 64.1606 157.21 63.5721 157.21ZM63.5721 156.351C64.1554 156.351 64.6085 156.069 64.9315 155.507C65.2544 154.944 65.4158 154.142 65.4158 153.101C65.4158 152.408 65.3416 151.818 65.1932 151.331C65.0473 150.844 64.8364 150.473 64.5604 150.218C64.2869 149.963 63.9575 149.835 63.5721 149.835C62.994 149.835 62.5421 150.12 62.2166 150.69C61.8911 151.258 61.7283 152.062 61.7283 153.101C61.7283 153.793 61.8012 154.382 61.9471 154.866C62.0929 155.351 62.3026 155.719 62.576 155.972C62.852 156.224 63.1841 156.351 63.5721 156.351Z" fill="#373D3F"/>
<path d="M56.6619 220.701C56.1463 220.701 55.6867 220.613 55.283 220.436C54.882 220.259 54.563 220.013 54.326 219.697C54.0916 219.38 53.964 219.011 53.9432 218.592H54.9276C54.9484 218.85 55.0369 219.072 55.1932 219.26C55.3494 219.445 55.5539 219.588 55.8065 219.69C56.0591 219.791 56.339 219.842 56.6463 219.842C56.9901 219.842 57.2947 219.782 57.5604 219.662C57.826 219.543 58.0343 219.376 58.1854 219.162C58.3364 218.949 58.4119 218.701 58.4119 218.42C58.4119 218.126 58.339 217.867 58.1932 217.643C58.0473 217.416 57.8338 217.239 57.5526 217.112C57.2713 216.984 56.9276 216.92 56.5213 216.92H55.8807V216.061H56.5213C56.839 216.061 57.1177 216.003 57.3572 215.889C57.5994 215.774 57.7882 215.613 57.9236 215.404C58.0617 215.196 58.1307 214.951 58.1307 214.67C58.1307 214.399 58.0708 214.164 57.951 213.963C57.8312 213.763 57.6619 213.606 57.4432 213.494C57.227 213.382 56.9718 213.326 56.6776 213.326C56.4015 213.326 56.1411 213.377 55.8963 213.479C55.6541 213.578 55.4562 213.722 55.3026 213.912C55.1489 214.1 55.0656 214.326 55.0526 214.592H54.1151C54.1307 214.173 54.257 213.806 54.494 213.49C54.7309 213.173 55.0408 212.925 55.4236 212.748C55.8091 212.571 56.2322 212.483 56.6932 212.483C57.188 212.483 57.6124 212.583 57.9666 212.783C58.3208 212.981 58.5929 213.243 58.783 213.569C58.9731 213.894 59.0682 214.246 59.0682 214.623C59.0682 215.074 58.9497 215.458 58.7127 215.776C58.4783 216.093 58.1593 216.313 57.7557 216.436V216.498C58.2609 216.582 58.6554 216.796 58.9393 217.143C59.2231 217.487 59.3651 217.912 59.3651 218.42C59.3651 218.855 59.2466 219.246 59.0096 219.592C58.7752 219.936 58.4549 220.207 58.0486 220.404C57.6424 220.602 57.1802 220.701 56.6619 220.701ZM63.5721 220.701C62.9835 220.701 62.4822 220.541 62.0682 220.221C61.6541 219.898 61.3377 219.431 61.119 218.819C60.9002 218.204 60.7908 217.462 60.7908 216.592C60.7908 215.727 60.9002 214.989 61.119 214.377C61.3403 213.763 61.658 213.294 62.0721 212.971C62.4887 212.645 62.9887 212.483 63.5721 212.483C64.1554 212.483 64.6541 212.645 65.0682 212.971C65.4848 213.294 65.8026 213.763 66.0213 214.377C66.2427 214.989 66.3533 215.727 66.3533 216.592C66.3533 217.462 66.244 218.204 66.0252 218.819C65.8065 219.431 65.4901 219.898 65.076 220.221C64.6619 220.541 64.1606 220.701 63.5721 220.701ZM63.5721 219.842C64.1554 219.842 64.6085 219.561 64.9315 218.998C65.2544 218.436 65.4158 217.634 65.4158 216.592C65.4158 215.899 65.3416 215.309 65.1932 214.822C65.0473 214.335 64.8364 213.964 64.5604 213.709C64.2869 213.454 63.9575 213.326 63.5721 213.326C62.994 213.326 62.5421 213.612 62.2166 214.182C61.8911 214.75 61.7283 215.553 61.7283 216.592C61.7283 217.285 61.8012 217.873 61.9471 218.358C62.0929 218.842 62.3026 219.21 62.576 219.463C62.852 219.716 63.1841 219.842 63.5721 219.842Z" fill="#373D3F"/>
<path d="M64.4174 284.193C63.8289 284.193 63.3276 284.033 62.9135 283.712C62.4995 283.389 62.183 282.922 61.9643 282.31C61.7455 281.695 61.6362 280.953 61.6362 280.083C61.6362 279.219 61.7455 278.481 61.9643 277.869C62.1856 277.254 62.5034 276.785 62.9174 276.462C63.3341 276.137 63.8341 275.974 64.4174 275.974C65.0008 275.974 65.4995 276.137 65.9135 276.462C66.3302 276.785 66.6479 277.254 66.8666 277.869C67.088 278.481 67.1987 279.219 67.1987 280.083C67.1987 280.953 67.0893 281.695 66.8705 282.31C66.6518 282.922 66.3354 283.389 65.9213 283.712C65.5073 284.033 65.006 284.193 64.4174 284.193ZM64.4174 283.333C65.0008 283.333 65.4539 283.052 65.7768 282.49C66.0997 281.927 66.2612 281.125 66.2612 280.083C66.2612 279.391 66.187 278.801 66.0385 278.314C65.8927 277.827 65.6817 277.456 65.4057 277.201C65.1323 276.945 64.8028 276.818 64.4174 276.818C63.8393 276.818 63.3875 277.103 63.062 277.673C62.7364 278.241 62.5737 279.044 62.5737 280.083C62.5737 280.776 62.6466 281.365 62.7924 281.849C62.9383 282.333 63.1479 282.702 63.4213 282.955C63.6974 283.207 64.0294 283.333 64.4174 283.333Z" fill="#373D3F"/>
<path d="M88.1323 283.017V288.64" stroke="#E0E0E0"/>
<path d="M245.276 283.017V288.64" stroke="#E0E0E0"/>
<path d="M402.42 283.017V288.64" stroke="#E0E0E0"/>
<path d="M559.564 283.017V288.64" stroke="#E0E0E0"/>
<path d="M716.708 283.017V288.64" stroke="#E0E0E0"/>
<path d="M873.852 283.017V288.64" stroke="#E0E0E0"/>
<path d="M1031 283.017V288.64" stroke="#E0E0E0"/>
<path d="M88.1323 91.6057H1109.57" stroke="#E0E0E0"/>
<path d="M88.1323 155.097H1109.57" stroke="#E0E0E0"/>
<path d="M88.1323 218.589H1109.57" stroke="#E0E0E0"/>
<mask id="mask0_31_992" style="mask-type:luminance" maskUnits="userSpaceOnUse" x="80" y="26" width="1038" height="258">
<path d="M1117.34 26.24H80.3594V283.954H1117.34V26.24Z" fill="white"/>
</mask>
<g mask="url(#mask0_31_992)">
<path d="M88.1323 282.08V216.472C170.633 216.472 241.348 197.425 323.848 197.425C378.849 197.425 425.992 222.821 480.992 222.821C535.993 222.821 583.136 174.145 638.136 174.145C693.137 174.145 740.28 193.192 795.28 193.192C850.28 193.192 897.424 51.3945 952.424 51.3945C1007.42 51.3945 1054.57 70.4419 1109.57 70.4419C1109.57 70.4419 1109.57 70.4419 1109.57 282.08" fill="url(#paint0_linear_31_992)"/>
</g>
<mask id="mask1_31_992" style="mask-type:luminance" maskUnits="userSpaceOnUse" x="80" y="26" width="1038" height="258">
<path d="M1117.34 26.24H80.3594V283.954H1117.34V26.24Z" fill="white"/>
</mask>
<g mask="url(#mask1_31_992)">
<path d="M88.1323 216.472C170.633 216.472 241.348 197.425 323.848 197.425C378.849 197.425 425.992 222.821 480.992 222.821C535.993 222.821 583.136 174.145 638.136 174.145C693.137 174.145 740.28 193.192 795.28 193.192C850.28 193.192 897.424 51.3945 952.424 51.3945C1007.42 51.3945 1054.57 70.4419 1109.57 70.4419" stroke="#008FFB" stroke-width="4"/>
</g>
<mask id="mask2_31_992" style="mask-type:luminance" maskUnits="userSpaceOnUse" x="80" y="26" width="1038" height="258">
<path d="M1117.34 26.24H80.3594V283.954H1117.34V26.24Z" fill="white"/>
</mask>
<g mask="url(#mask2_31_992)">
<path d="M88.1323 282.08V258.8C170.633 258.8 241.348 214.356 323.848 214.356C378.849 214.356 425.992 186.843 480.992 186.843C535.993 186.843 583.136 214.356 638.136 214.356C693.137 214.356 740.28 210.123 795.28 210.123C850.28 210.123 897.424 172.028 952.424 172.028C1007.42 172.028 1054.57 195.308 1109.57 195.308C1109.57 195.308 1109.57 195.308 1109.57 282.08" fill="url(#paint1_linear_31_992)"/>
</g>
<mask id="mask3_31_992" style="mask-type:luminance" maskUnits="userSpaceOnUse" x="80" y="26" width="1038" height="258">
<path d="M1117.34 26.24H80.3594V283.954H1117.34V26.24Z" fill="white"/>
</mask>
<g mask="url(#mask3_31_992)">
<path d="M88.1323 258.8C170.633 258.8 241.348 214.356 323.848 214.356C378.849 214.356 425.992 186.843 480.992 186.843C535.993 186.843 583.136 214.356 638.136 214.356C693.137 214.356 740.28 210.123 795.28 210.123C850.28 210.123 897.424 172.028 952.424 172.028C1007.42 172.028 1054.57 195.308 1109.57 195.308" stroke="#00E396" stroke-width="4"/>
</g>
<path d="M88.1323 28.1143H1109.57" stroke="#E0E0E0"/>
<path d="M88.1323 282.08H1109.57" stroke="#E0E0E0"/>
<path d="M88.1323 283.017H1109.57" stroke="#E0E0E0"/>
<path d="M98.2398 297.536H99.2966V303.774C99.2966 304.331 99.1943 304.804 98.9898 305.193C98.7852 305.582 98.4969 305.878 98.1247 306.08C97.7525 306.281 97.3136 306.382 96.8079 306.382C96.3307 306.382 95.906 306.296 95.5338 306.122C95.1616 305.946 94.869 305.696 94.656 305.372C94.4429 305.048 94.3363 304.663 94.3363 304.217H95.3761C95.3761 304.465 95.4372 304.68 95.5594 304.865C95.6844 305.047 95.8548 305.189 96.0707 305.291C96.2866 305.394 96.5324 305.445 96.8079 305.445C97.1119 305.445 97.3704 305.381 97.5835 305.253C97.7966 305.125 97.9585 304.938 98.0693 304.69C98.1829 304.44 98.2398 304.135 98.2398 303.774V297.536ZM103.204 306.416C102.789 306.416 102.413 306.338 102.075 306.182C101.737 306.023 101.468 305.794 101.27 305.496C101.071 305.195 100.971 304.831 100.971 304.405C100.971 304.03 101.045 303.726 101.193 303.493C101.341 303.257 101.538 303.073 101.785 302.939C102.032 302.805 102.305 302.706 102.603 302.641C102.905 302.573 103.207 302.519 103.511 302.479C103.909 302.428 104.231 302.389 104.478 302.364C104.728 302.335 104.91 302.288 105.024 302.223C105.14 302.158 105.199 302.044 105.199 301.882V301.848C105.199 301.428 105.084 301.101 104.853 300.868C104.626 300.635 104.281 300.519 103.818 300.519C103.338 300.519 102.961 300.624 102.689 300.834C102.416 301.044 102.224 301.269 102.113 301.507L101.159 301.166C101.329 300.769 101.557 300.459 101.841 300.237C102.128 300.013 102.44 299.857 102.778 299.769C103.119 299.678 103.454 299.632 103.784 299.632C103.994 299.632 104.235 299.658 104.508 299.709C104.784 299.757 105.049 299.858 105.305 300.011C105.564 300.165 105.778 300.396 105.949 300.706C106.119 301.016 106.204 301.43 106.204 301.95V306.263H105.199V305.376H105.147C105.079 305.519 104.966 305.671 104.807 305.832C104.647 305.994 104.436 306.132 104.172 306.246C103.907 306.359 103.585 306.416 103.204 306.416ZM103.358 305.513C103.755 305.513 104.091 305.435 104.363 305.278C104.639 305.122 104.846 304.921 104.985 304.673C105.128 304.426 105.199 304.166 105.199 303.894V302.973C105.156 303.024 105.062 303.071 104.917 303.114C104.775 303.153 104.61 303.189 104.423 303.22C104.238 303.249 104.058 303.274 103.882 303.297C103.709 303.317 103.568 303.334 103.46 303.348C103.199 303.382 102.954 303.438 102.727 303.514C102.503 303.588 102.321 303.7 102.182 303.851C102.045 303.999 101.977 304.2 101.977 304.456C101.977 304.805 102.106 305.07 102.365 305.249C102.626 305.425 102.957 305.513 103.358 305.513ZM109.046 302.325V306.263H108.04V299.717H109.011V300.74H109.097C109.25 300.408 109.483 300.141 109.796 299.939C110.108 299.734 110.511 299.632 111.006 299.632C111.449 299.632 111.837 299.723 112.169 299.905C112.501 300.084 112.76 300.357 112.945 300.723C113.129 301.087 113.222 301.547 113.222 302.104V306.263H112.216V302.172C112.216 301.658 112.082 301.257 111.815 300.97C111.548 300.68 111.182 300.536 110.716 300.536C110.395 300.536 110.108 300.605 109.855 300.744C109.605 300.884 109.408 301.087 109.263 301.354C109.118 301.621 109.046 301.945 109.046 302.325Z" fill="#373D3F"/>
<path d="M251.508 306.263V297.536H256.741V298.473H252.565V301.422H256.349V302.359H252.565V306.263H251.508ZM260.679 306.399C260.048 306.399 259.504 306.26 259.047 305.982C258.592 305.7 258.241 305.308 257.994 304.805C257.75 304.3 257.628 303.712 257.628 303.041C257.628 302.371 257.75 301.78 257.994 301.269C258.241 300.754 258.585 300.354 259.025 300.067C259.469 299.777 259.986 299.632 260.576 299.632C260.917 299.632 261.254 299.689 261.586 299.803C261.919 299.916 262.221 300.101 262.494 300.357C262.767 300.609 262.984 300.945 263.146 301.362C263.308 301.78 263.389 302.294 263.389 302.905V303.331H258.344V302.462H262.366C262.366 302.092 262.292 301.763 262.145 301.473C262 301.183 261.792 300.955 261.523 300.787C261.255 300.619 260.94 300.536 260.576 300.536C260.176 300.536 259.829 300.635 259.537 300.834C259.247 301.03 259.024 301.286 258.868 301.601C258.711 301.916 258.633 302.254 258.633 302.615V303.195C258.633 303.689 258.719 304.108 258.889 304.452C259.062 304.793 259.302 305.053 259.609 305.232C259.916 305.408 260.273 305.496 260.679 305.496C260.943 305.496 261.182 305.459 261.395 305.385C261.611 305.308 261.797 305.195 261.953 305.044C262.109 304.891 262.23 304.7 262.315 304.473L263.287 304.746C263.184 305.075 263.013 305.365 262.771 305.615C262.53 305.862 262.231 306.055 261.876 306.195C261.521 306.331 261.122 306.399 260.679 306.399ZM265.055 306.263V297.536H266.061V300.757H266.146C266.22 300.644 266.322 300.499 266.453 300.323C266.586 300.144 266.777 299.984 267.024 299.845C267.274 299.703 267.612 299.632 268.038 299.632C268.589 299.632 269.075 299.77 269.496 300.046C269.916 300.321 270.244 300.712 270.48 301.217C270.716 301.723 270.834 302.32 270.834 303.007C270.834 303.7 270.716 304.301 270.48 304.81C270.244 305.315 269.917 305.707 269.5 305.986C269.082 306.261 268.601 306.399 268.055 306.399C267.635 306.399 267.298 306.33 267.045 306.19C266.792 306.048 266.598 305.888 266.461 305.709C266.325 305.527 266.22 305.376 266.146 305.257H266.027V306.263H265.055ZM266.044 302.99C266.044 303.484 266.116 303.921 266.261 304.298C266.406 304.673 266.618 304.967 266.896 305.18C267.174 305.391 267.515 305.496 267.919 305.496C268.339 305.496 268.69 305.385 268.971 305.163C269.255 304.939 269.469 304.638 269.611 304.26C269.755 303.879 269.828 303.456 269.828 302.99C269.828 302.53 269.757 302.115 269.615 301.746C269.476 301.374 269.264 301.08 268.98 300.864C268.699 300.645 268.345 300.536 267.919 300.536C267.51 300.536 267.166 300.639 266.888 300.847C266.609 301.051 266.399 301.338 266.257 301.707C266.115 302.074 266.044 302.501 266.044 302.99Z" fill="#373D3F"/>
<path d="M401.587 297.536H402.849L405.814 304.78H405.917L408.883 297.536H410.144V306.263H409.155V299.632H409.07L406.343 306.263H405.388L402.661 299.632H402.576V306.263H401.587V297.536ZM414.053 306.416C413.638 306.416 413.262 306.338 412.923 306.182C412.585 306.023 412.317 305.794 412.118 305.496C411.919 305.195 411.82 304.831 411.82 304.405C411.82 304.03 411.894 303.726 412.041 303.493C412.189 303.257 412.387 303.073 412.634 302.939C412.881 302.805 413.154 302.706 413.452 302.641C413.753 302.573 414.056 302.519 414.36 302.479C414.757 302.428 415.08 302.389 415.327 302.364C415.577 302.335 415.759 302.288 415.872 302.223C415.989 302.158 416.047 302.044 416.047 301.882V301.848C416.047 301.428 415.932 301.101 415.702 300.868C415.475 300.635 415.129 300.519 414.666 300.519C414.186 300.519 413.81 300.624 413.537 300.834C413.264 301.044 413.073 301.269 412.962 301.507L412.007 301.166C412.178 300.769 412.405 300.459 412.689 300.237C412.976 300.013 413.289 299.857 413.627 299.769C413.967 299.678 414.303 299.632 414.632 299.632C414.842 299.632 415.084 299.658 415.357 299.709C415.632 299.757 415.898 299.858 416.154 300.011C416.412 300.165 416.627 300.396 416.797 300.706C416.967 301.016 417.053 301.43 417.053 301.95V306.263H416.047V305.376H415.996C415.928 305.519 415.814 305.671 415.655 305.832C415.496 305.994 415.284 306.132 415.02 306.246C414.756 306.359 414.433 306.416 414.053 306.416ZM414.206 305.513C414.604 305.513 414.939 305.435 415.212 305.278C415.487 305.122 415.695 304.921 415.834 304.673C415.976 304.426 416.047 304.166 416.047 303.894V302.973C416.004 303.024 415.911 303.071 415.766 303.114C415.624 303.153 415.459 303.189 415.271 303.22C415.087 303.249 414.906 303.274 414.73 303.297C414.557 303.317 414.416 303.334 414.308 303.348C414.047 303.382 413.803 303.438 413.575 303.514C413.351 303.588 413.169 303.7 413.03 303.851C412.894 303.999 412.825 304.2 412.825 304.456C412.825 304.805 412.955 305.07 413.213 305.249C413.475 305.425 413.806 305.513 414.206 305.513ZM418.888 306.263V299.717H419.86V300.706H419.928C420.047 300.382 420.263 300.119 420.576 299.918C420.888 299.716 421.241 299.615 421.633 299.615C421.706 299.615 421.799 299.617 421.91 299.619C422.02 299.622 422.104 299.626 422.161 299.632V300.655C422.127 300.646 422.049 300.634 421.927 300.617C421.807 300.597 421.681 300.587 421.547 300.587C421.229 300.587 420.945 300.653 420.695 300.787C420.448 300.918 420.252 301.099 420.107 301.332C419.965 301.563 419.894 301.825 419.894 302.121V306.263H418.888ZM425.813 306.399C425.199 306.399 424.671 306.254 424.228 305.965C423.785 305.675 423.444 305.276 423.205 304.767C422.966 304.259 422.847 303.678 422.847 303.024C422.847 302.359 422.969 301.773 423.214 301.264C423.461 300.753 423.805 300.354 424.245 300.067C424.688 299.777 425.205 299.632 425.796 299.632C426.256 299.632 426.671 299.717 427.04 299.888C427.41 300.058 427.712 300.297 427.948 300.604C428.184 300.911 428.33 301.269 428.387 301.678H427.381C427.305 301.379 427.134 301.115 426.87 300.885C426.608 300.652 426.256 300.536 425.813 300.536C425.421 300.536 425.077 300.638 424.782 300.842C424.489 301.044 424.26 301.33 424.096 301.699C423.934 302.065 423.853 302.496 423.853 302.99C423.853 303.496 423.932 303.936 424.091 304.311C424.253 304.686 424.481 304.977 424.773 305.185C425.069 305.392 425.415 305.496 425.813 305.496C426.074 305.496 426.312 305.45 426.525 305.359C426.738 305.269 426.918 305.138 427.066 304.967C427.214 304.797 427.319 304.592 427.381 304.354H428.387C428.33 304.74 428.189 305.088 427.965 305.398C427.743 305.705 427.449 305.949 427.083 306.131C426.719 306.31 426.296 306.399 425.813 306.399ZM430.863 302.325V306.263H429.857V297.536H430.863V300.74H430.948C431.101 300.402 431.331 300.134 431.638 299.935C431.948 299.733 432.36 299.632 432.874 299.632C433.32 299.632 433.711 299.722 434.046 299.901C434.381 300.077 434.641 300.348 434.826 300.715C435.013 301.078 435.107 301.541 435.107 302.104V306.263H434.101V302.172C434.101 301.652 433.966 301.25 433.697 300.966C433.43 300.679 433.059 300.536 432.584 300.536C432.255 300.536 431.959 300.605 431.698 300.744C431.439 300.884 431.235 301.087 431.084 301.354C430.937 301.621 430.863 301.945 430.863 302.325Z" fill="#373D3F"/>
<path d="M570.277 299.717C570.226 299.286 570.019 298.95 569.655 298.712C569.292 298.473 568.846 298.354 568.317 298.354C567.931 298.354 567.593 298.416 567.303 298.541C567.016 298.666 566.792 298.838 566.63 299.057C566.471 299.276 566.391 299.524 566.391 299.803C566.391 300.036 566.446 300.236 566.557 300.403C566.671 300.568 566.816 300.706 566.992 300.817C567.168 300.925 567.353 301.014 567.546 301.085C567.739 301.153 567.917 301.209 568.078 301.251L568.965 301.49C569.192 301.55 569.445 301.632 569.723 301.737C570.005 301.842 570.273 301.986 570.529 302.168C570.787 302.347 571 302.577 571.168 302.858C571.336 303.139 571.419 303.484 571.419 303.894C571.419 304.365 571.296 304.791 571.049 305.172C570.804 305.553 570.446 305.855 569.975 306.08C569.506 306.304 568.936 306.416 568.266 306.416C567.641 306.416 567.1 306.315 566.642 306.114C566.188 305.912 565.83 305.631 565.569 305.27C565.31 304.909 565.164 304.49 565.13 304.013H566.221C566.249 304.342 566.36 304.615 566.553 304.831C566.749 305.044 566.996 305.203 567.294 305.308C567.596 305.411 567.919 305.462 568.266 305.462C568.669 305.462 569.032 305.396 569.353 305.266C569.674 305.132 569.928 304.948 570.115 304.712C570.303 304.473 570.397 304.195 570.397 303.876C570.397 303.587 570.316 303.351 570.154 303.169C569.992 302.987 569.779 302.84 569.515 302.726C569.25 302.612 568.965 302.513 568.658 302.428L567.584 302.121C566.902 301.925 566.363 301.645 565.965 301.281C565.567 300.918 565.368 300.442 565.368 299.854C565.368 299.365 565.5 298.939 565.765 298.575C566.032 298.209 566.39 297.925 566.838 297.723C567.29 297.519 567.794 297.416 568.351 297.416C568.914 297.416 569.414 297.517 569.851 297.719C570.289 297.918 570.635 298.19 570.891 298.537C571.149 298.884 571.286 299.277 571.3 299.717H570.277ZM575.765 306.399C575.134 306.399 574.59 306.26 574.133 305.982C573.678 305.7 573.327 305.308 573.08 304.805C572.836 304.3 572.714 303.712 572.714 303.041C572.714 302.371 572.836 301.78 573.08 301.269C573.327 300.754 573.671 300.354 574.111 300.067C574.555 299.777 575.072 299.632 575.663 299.632C576.004 299.632 576.34 299.689 576.673 299.803C577.005 299.916 577.308 300.101 577.58 300.357C577.853 300.609 578.07 300.945 578.232 301.362C578.394 301.78 578.475 302.294 578.475 302.905V303.331H573.43V302.462H577.452C577.452 302.092 577.379 301.763 577.231 301.473C577.086 301.183 576.879 300.955 576.609 300.787C576.342 300.619 576.026 300.536 575.663 300.536C575.262 300.536 574.915 300.635 574.623 300.834C574.333 301.03 574.11 301.286 573.954 301.601C573.798 301.916 573.719 302.254 573.719 302.615V303.195C573.719 303.689 573.805 304.108 573.975 304.452C574.148 304.793 574.388 305.053 574.695 305.232C575.002 305.408 575.359 305.496 575.765 305.496C576.029 305.496 576.268 305.459 576.481 305.385C576.697 305.308 576.883 305.195 577.039 305.044C577.195 304.891 577.316 304.7 577.401 304.473L578.373 304.746C578.271 305.075 578.099 305.365 577.857 305.615C577.616 305.862 577.317 306.055 576.962 306.195C576.607 306.331 576.208 306.399 575.765 306.399ZM580.005 308.717V299.717H580.977V300.757H581.096C581.17 300.644 581.272 300.499 581.403 300.323C581.536 300.144 581.727 299.984 581.974 299.845C582.224 299.703 582.562 299.632 582.988 299.632C583.539 299.632 584.025 299.77 584.445 300.046C584.866 300.321 585.194 300.712 585.43 301.217C585.665 301.723 585.783 302.32 585.783 303.007C585.783 303.7 585.665 304.301 585.43 304.81C585.194 305.315 584.867 305.707 584.45 305.986C584.032 306.261 583.55 306.399 583.005 306.399C582.584 306.399 582.248 306.33 581.995 306.19C581.742 306.048 581.548 305.888 581.411 305.709C581.275 305.527 581.17 305.376 581.096 305.257H581.011V308.717H580.005ZM580.994 302.99C580.994 303.484 581.066 303.921 581.211 304.298C581.356 304.673 581.567 304.967 581.846 305.18C582.124 305.391 582.465 305.496 582.869 305.496C583.289 305.496 583.64 305.385 583.921 305.163C584.205 304.939 584.418 304.638 584.56 304.26C584.705 303.879 584.778 303.456 584.778 302.99C584.778 302.53 584.707 302.115 584.565 301.746C584.425 301.374 584.214 301.08 583.93 300.864C583.648 300.645 583.295 300.536 582.869 300.536C582.459 300.536 582.116 300.639 581.837 300.847C581.559 301.051 581.349 301.338 581.207 301.707C581.065 302.074 580.994 302.501 580.994 302.99Z" fill="#373D3F"/>
<path d="M730.885 301.899C730.885 302.82 730.719 303.615 730.387 304.286C730.054 304.956 729.598 305.473 729.019 305.837C728.439 306.2 727.777 306.382 727.033 306.382C726.289 306.382 725.627 306.2 725.047 305.837C724.468 305.473 724.012 304.956 723.679 304.286C723.347 303.615 723.181 302.82 723.181 301.899C723.181 300.979 723.347 300.183 723.679 299.513C724.012 298.842 724.468 298.325 725.047 297.962C725.627 297.598 726.289 297.416 727.033 297.416C727.777 297.416 728.439 297.598 729.019 297.962C729.598 298.325 730.054 298.842 730.387 299.513C730.719 300.183 730.885 300.979 730.885 301.899ZM729.862 301.899C729.862 301.144 729.736 300.506 729.483 299.986C729.233 299.466 728.894 299.073 728.465 298.805C728.039 298.538 727.561 298.405 727.033 298.405C726.505 298.405 726.026 298.538 725.597 298.805C725.171 299.073 724.831 299.466 724.578 299.986C724.328 300.506 724.203 301.144 724.203 301.899C724.203 302.655 724.328 303.293 724.578 303.813C724.831 304.332 725.171 304.726 725.597 304.993C726.026 305.26 726.505 305.394 727.033 305.394C727.561 305.394 728.039 305.26 728.465 304.993C728.894 304.726 729.233 304.332 729.483 303.813C729.736 303.293 729.862 302.655 729.862 301.899ZM735.185 306.399C734.571 306.399 734.043 306.254 733.6 305.965C733.157 305.675 732.816 305.276 732.577 304.767C732.338 304.259 732.219 303.678 732.219 303.024C732.219 302.359 732.341 301.773 732.586 301.264C732.833 300.753 733.176 300.354 733.617 300.067C734.06 299.777 734.577 299.632 735.168 299.632C735.628 299.632 736.043 299.717 736.412 299.888C736.782 300.058 737.084 300.297 737.32 300.604C737.556 300.911 737.702 301.269 737.759 301.678H736.753C736.676 301.379 736.506 301.115 736.242 300.885C735.98 300.652 735.628 300.536 735.185 300.536C734.793 300.536 734.449 300.638 734.154 300.842C733.861 301.044 733.632 301.33 733.468 301.699C733.306 302.065 733.225 302.496 733.225 302.99C733.225 303.496 733.304 303.936 733.463 304.311C733.625 304.686 733.853 304.977 734.145 305.185C734.441 305.392 734.787 305.496 735.185 305.496C735.446 305.496 735.684 305.45 735.897 305.359C736.11 305.269 736.29 305.138 736.438 304.967C736.586 304.797 736.691 304.592 736.753 304.354H737.759C737.702 304.74 737.561 305.088 737.337 305.398C737.115 305.705 736.821 305.949 736.455 306.131C736.091 306.31 735.668 306.399 735.185 306.399ZM742.076 299.717V300.57H738.684V299.717H742.076ZM739.672 298.149H740.678V304.388C740.678 304.672 740.719 304.885 740.801 305.027C740.887 305.166 740.995 305.26 741.125 305.308C741.259 305.354 741.399 305.376 741.547 305.376C741.658 305.376 741.749 305.371 741.82 305.359C741.891 305.345 741.948 305.334 741.99 305.325L742.195 306.229C742.127 306.254 742.032 306.28 741.909 306.305C741.787 306.334 741.632 306.348 741.445 306.348C741.161 306.348 740.882 306.287 740.61 306.165C740.34 306.043 740.115 305.857 739.936 305.607C739.76 305.357 739.672 305.041 739.672 304.661V298.149Z" fill="#373D3F"/>
<path d="M886.367 297.536V306.263H885.344L880.589 299.411H880.504V306.263H879.447V297.536H880.469L885.242 304.405H885.327V297.536H886.367ZM891.005 306.399C890.414 306.399 889.895 306.259 889.449 305.977C889.006 305.696 888.659 305.303 888.409 304.797C888.162 304.291 888.039 303.7 888.039 303.024C888.039 302.342 888.162 301.747 888.409 301.239C888.659 300.73 889.006 300.335 889.449 300.054C889.895 299.773 890.414 299.632 891.005 299.632C891.596 299.632 892.113 299.773 892.556 300.054C893.002 300.335 893.348 300.73 893.596 301.239C893.846 301.747 893.971 302.342 893.971 303.024C893.971 303.7 893.846 304.291 893.596 304.797C893.348 305.303 893.002 305.696 892.556 305.977C892.113 306.259 891.596 306.399 891.005 306.399ZM891.005 305.496C891.454 305.496 891.823 305.381 892.113 305.151C892.402 304.921 892.617 304.618 892.756 304.243C892.895 303.868 892.965 303.462 892.965 303.024C892.965 302.587 892.895 302.179 892.756 301.801C892.617 301.423 892.402 301.118 892.113 300.885C891.823 300.652 891.454 300.536 891.005 300.536C890.556 300.536 890.186 300.652 889.897 300.885C889.607 301.118 889.392 301.423 889.253 301.801C889.114 302.179 889.044 302.587 889.044 303.024C889.044 303.462 889.114 303.868 889.253 304.243C889.392 304.618 889.607 304.921 889.897 305.151C890.186 305.381 890.556 305.496 891.005 305.496ZM900.624 299.717L898.203 306.263H897.18L894.76 299.717H895.851L897.658 304.933H897.726L899.533 299.717H900.624Z" fill="#373D3F"/>
<path d="M1039.45 306.263H1036.75V297.536H1039.57C1040.41 297.536 1041.14 297.71 1041.74 298.06C1042.34 298.406 1042.8 298.905 1043.13 299.555C1043.45 300.203 1043.61 300.979 1043.61 301.882C1043.61 302.791 1043.45 303.574 1043.12 304.23C1042.8 304.884 1042.33 305.386 1041.71 305.739C1041.09 306.088 1040.33 306.263 1039.45 306.263ZM1037.81 305.325H1039.38C1040.1 305.325 1040.7 305.186 1041.17 304.908C1041.65 304.629 1042 304.233 1042.23 303.719C1042.47 303.205 1042.58 302.592 1042.58 301.882C1042.58 301.178 1042.47 300.571 1042.24 300.063C1042.01 299.551 1041.67 299.159 1041.21 298.886C1040.75 298.611 1040.18 298.473 1039.5 298.473H1037.81V305.325ZM1047.99 306.399C1047.36 306.399 1046.81 306.26 1046.36 305.982C1045.9 305.7 1045.55 305.308 1045.3 304.805C1045.06 304.3 1044.94 303.712 1044.94 303.041C1044.94 302.371 1045.06 301.78 1045.3 301.269C1045.55 300.754 1045.89 300.354 1046.33 300.067C1046.78 299.777 1047.29 299.632 1047.89 299.632C1048.23 299.632 1048.56 299.689 1048.9 299.803C1049.23 299.916 1049.53 300.101 1049.8 300.357C1050.08 300.609 1050.29 300.945 1050.46 301.362C1050.62 301.78 1050.7 302.294 1050.7 302.905V303.331H1045.65V302.462H1049.68C1049.68 302.092 1049.6 301.763 1049.45 301.473C1049.31 301.183 1049.1 300.955 1048.83 300.787C1048.56 300.619 1048.25 300.536 1047.89 300.536C1047.48 300.536 1047.14 300.635 1046.85 300.834C1046.56 301.03 1046.33 301.286 1046.18 301.601C1046.02 301.916 1045.94 302.254 1045.94 302.615V303.195C1045.94 303.689 1046.03 304.108 1046.2 304.452C1046.37 304.793 1046.61 305.053 1046.92 305.232C1047.22 305.408 1047.58 305.496 1047.99 305.496C1048.25 305.496 1048.49 305.459 1048.7 305.385C1048.92 305.308 1049.11 305.195 1049.26 305.044C1049.42 304.891 1049.54 304.7 1049.62 304.473L1050.6 304.746C1050.49 305.075 1050.32 305.365 1050.08 305.615C1049.84 305.862 1049.54 306.055 1049.19 306.195C1048.83 306.331 1048.43 306.399 1047.99 306.399ZM1054.89 306.399C1054.27 306.399 1053.74 306.254 1053.3 305.965C1052.86 305.675 1052.52 305.276 1052.28 304.767C1052.04 304.259 1051.92 303.678 1051.92 303.024C1051.92 302.359 1052.04 301.773 1052.29 301.264C1052.53 300.753 1052.88 300.354 1053.32 300.067C1053.76 299.777 1054.28 299.632 1054.87 299.632C1055.33 299.632 1055.74 299.717 1056.11 299.888C1056.48 300.058 1056.79 300.297 1057.02 300.604C1057.26 300.911 1057.4 301.269 1057.46 301.678H1056.46C1056.38 301.379 1056.21 301.115 1055.94 300.885C1055.68 300.652 1055.33 300.536 1054.89 300.536C1054.49 300.536 1054.15 300.638 1053.86 300.842C1053.56 301.044 1053.33 301.33 1053.17 301.699C1053.01 302.065 1052.93 302.496 1052.93 302.99C1052.93 303.496 1053.01 303.936 1053.17 304.311C1053.33 304.686 1053.55 304.977 1053.85 305.185C1054.14 305.392 1054.49 305.496 1054.89 305.496C1055.15 305.496 1055.39 305.45 1055.6 305.359C1055.81 305.269 1055.99 305.138 1056.14 304.967C1056.29 304.797 1056.39 304.592 1056.46 304.354H1057.46C1057.4 304.74 1057.26 305.088 1057.04 305.398C1056.82 305.705 1056.52 305.949 1056.16 306.131C1055.79 306.31 1055.37 306.399 1054.89 306.399Z" fill="#373D3F"/>
</g>
<defs>
<linearGradient id="paint0_linear_31_992" x1="88.1323" y1="51.3945" x2="88.1323" y2="282.08" gradientUnits="userSpaceOnUse">
<stop stop-color="#008FFB" stop-opacity="0.4225"/>
<stop offset="1" stop-color="#80C7FD" stop-opacity="0.25"/>
</linearGradient>
<linearGradient id="paint1_linear_31_992" x1="88.1323" y1="172.028" x2="88.1323" y2="282.08" gradientUnits="userSpaceOnUse">
<stop stop-color="#00E396" stop-opacity="0.4225"/>
<stop offset="1" stop-color="#80F1CB" stop-opacity="0.25"/>
</linearGradient>
<clipPath id="clip0_31_992">
<rect width="1129" height="328" fill="white"/>
</clipPath>
</defs>
</svg>
